<?xml version="1.0" encoding="UTF-8"?>
<svg id="Layer_1" xmlns="http://www.w3.org/2000/svg" version="1.1" viewBox="0 0 512 512">
  <!-- Generator: Adobe Illustrator 29.6.0, SVG Export Plug-In . SVG Version: 2.1.1 Build 207)  -->
  <defs>
    <style>
      .st0 {
        fill: #fff;
        fill-rule: evenodd;
      }

      .st1 {
        fill: #222;
      }
    </style>
  </defs>
  <rect class="st1" x="-.2" y="0" width="512.6" height="512.1" rx="71.9" ry="71.9"/>
  <g id="Icon">
    <path class="st0" d="M201.8,235v35.2c0,10.5,4.2,20.6,11.6,28,7.4,7.4,17.5,11.6,28,11.6h35.2c10.5,0,20.6-4.2,28-11.6,7.4-7.4,11.6-17.5,11.6-28v-35.2c0-10.5-4.2-20.6-11.6-28-7.4-7.4-17.5-11.6-28-11.6h-35.2c-10.5,0-20.6,4.2-28,11.6s-11.6,17.5-11.6,28Z"/>
    <path class="st0" d="M69.8,103v35.2c0,10.5,4.2,20.6,11.6,28,7.4,7.4,17.5,11.6,28,11.6h35.2c10.5,0,20.6-4.2,28-11.6,7.4-7.4,11.6-17.5,11.6-28v-35.2c0-10.5-4.2-20.6-11.6-28-7.4-7.4-17.5-11.6-28-11.6h-35.2c-10.5,0-20.6,4.2-28,11.6s-11.6,17.5-11.6,28Z"/>
    <path class="st0" d="M333.7,367v35.2c0,10.5,4.2,20.6,11.6,28,7.4,7.4,17.5,11.6,28,11.6h35.2c10.5,0,20.6-4.2,28-11.6,7.4-7.4,11.6-17.5,11.6-28v-35.2c0-10.5-4.2-20.6-11.6-28-7.4-7.4-17.5-11.6-28-11.6h-35.2c-10.5,0-20.6,4.2-28,11.6-7.4,7.4-11.6,17.5-11.6,28Z"/>
    <path class="st0" d="M171,133.8h228.8c5.8,0,11.4,2.3,15.6,6.4,4.1,4.1,6.4,9.7,6.4,15.6v61.6c0,5.8-2.3,11.4-6.4,15.6-4.1,4.1-9.7,6.4-15.6,6.4h-52.8c-7.3,0-13.2,5.9-13.2,13.2s5.9,13.2,13.2,13.2h52.8c12.8,0,25.1-5.1,34.2-14.2,9.1-9.1,14.2-21.4,14.2-34.2v-61.6c0-12.8-5.1-25.1-14.2-34.2-9.1-9.1-21.4-14.2-34.2-14.2h-228.8c-7.3,0-13.2,5.9-13.2,13.2s5.9,13.2,13.2,13.2Z"/>
    <path class="st0" d="M276.5,371.4H118.2c-5.8,0-11.4-2.3-15.6-6.4-4.1-4.1-6.4-9.7-6.4-15.6v-61.6c0-5.8,2.3-11.4,6.4-15.6,4.1-4.1,9.7-6.4,15.6-6.4h96.8c7.3,0,13.2-5.9,13.2-13.2s-5.9-13.2-13.2-13.2h-96.8c-12.8,0-25.1,5.1-34.2,14.2-9.1,9.1-14.2,21.4-14.2,34.2v61.6c0,12.8,5.1,25.1,14.2,34.2,9.1,9.1,21.4,14.2,34.2,14.2h158.4c7.3,0,13.2-5.9,13.2-13.2s-5.9-13.2-13.2-13.2Z"/>
    <path class="st0" d="M391.5,278.5l-25.9-25.9,25.9-25.9c5.2-5.1,5.2-13.5,0-18.7-5.1-5.2-13.5-5.2-18.7,0l-35.2,35.2c-5.2,5.2-5.2,13.5,0,18.7l35.2,35.2c5.1,5.2,13.5,5.2,18.7,0,5.2-5.1,5.2-13.5,0-18.7h0Z"/>
    <path class="st0" d="M268.3,429.1l35.2-35.2c5.2-5.2,5.2-13.5,0-18.7l-35.2-35.2c-5.1-5.2-13.5-5.2-18.7,0-5.2,5.1-5.2,13.5,0,18.7l25.9,25.9-25.9,25.9c-5.2,5.1-5.2,13.5,0,18.7,5.1,5.2,13.5,5.2,18.7,0h0Z"/>
  </g>
</svg>