<?xml version="1.0" encoding="UTF-8"?>
<svg id="Layer_1" xmlns="http://www.w3.org/2000/svg" version="1.1" viewBox="0 0 580 286">
  <!-- Generator: Adobe Illustrator 29.4.0, SVG Export Plug-In . SVG Version: 2.1.0 Build 152)  -->
  <defs>
    <style>
      .st0 {
        fill: #fff;
      }

      .st0, .st1 {
        fill-rule: evenodd;
      }
    </style>
  </defs>
  <g>
    <path d="M23.1,90.8c4.1,2.8,9.8,4.8,15.9,4.8,10.8,0,17.5-6.1,17.5-15.1s-4.2-12.9-14.7-17c-11.7-4.1-18.7-10.1-18.7-20s8.8-18.4,21.1-18.4,12,1.8,14.4,3.4l-1.9,4.3c-1.9-1.4-6.6-3.4-12.8-3.4-11.7,0-15.7,7.5-15.7,13.3,0,8.1,4.6,12.2,15.1,16.3,12,4.8,18.3,10.2,18.3,21.1s-7.5,19.9-23.1,19.9-13.6-2-17.3-4.8l1.9-4.3Z"/>
    <path d="M70,63.7c0-6.5-.2-11.6-.4-16.5h4.8l.4,9.8h.2c3.7-6.9,10-11,19.1-11,13.2,0,22.2,11,22.2,26.2s-11,27.9-23.5,27.9-14-3.3-17.6-9.6h-.2v29.7h-5.1v-56.6ZM75,78.5c0,1.4.2,2.8.4,4.1,2.2,8,9,13.1,17,13.1,11.9,0,18.6-9.6,18.6-23.4s-6.5-22.2-18.2-22.2-14.9,5.3-17.1,13.8c-.3,1.4-.8,3-.8,4.4v10.1Z"/>
    <path d="M124.8,72.5c0,16.6,9,23.1,19.7,23.1s11.4-1.5,14.3-2.9l1.3,4.1c-1.9,1.1-7.2,3.2-16.3,3.2-14.9,0-24.1-10.8-24.1-26s9.9-28,23.3-28,20.1,15.9,20.1,23.4,0,2.3-.2,3.1h-38.1ZM157.8,68.4c.1-7.2-2.9-18.2-15.4-18.2s-16.4,10.2-17.2,18.2h32.6Z"/>
    <path d="M171.7,72.5c0,16.6,9,23.1,19.7,23.1s11.4-1.5,14.3-2.9l1.3,4.1c-1.9,1.1-7.2,3.2-16.3,3.2-14.9,0-24.1-10.8-24.1-26s9.9-28,23.3-28,20.1,15.9,20.1,23.4,0,2.3-.2,3.1h-38.1ZM204.6,68.4c.1-7.2-2.9-18.2-15.4-18.2s-16.4,10.2-17.2,18.2h32.6Z"/>
    <path d="M253.4,96.6c-2.3,1.2-7.6,3.3-15.1,3.3-15,0-24.9-10.8-24.9-26.4s11.2-27.6,26.7-27.6,11.5,1.8,13.6,3.2l-1.8,4.2c-2.6-1.4-6.6-3-12.3-3-13.9,0-21,10.7-21,22.8s8.5,22.3,20.5,22.3,10.1-1.7,12.9-2.9l1.4,4Z"/>
    <path d="M260.4,22.4h5.1v34h.2c1.5-2.9,4-5.7,7.1-7.5,2.9-1.8,6.5-2.9,10.4-2.9s17.9,2.5,17.9,21.7v31.2h-5.1v-30.6c0-9.4-3.7-17.9-14.2-17.9s-13.5,5.3-15.6,11.7c-.5,1.5-.8,3-.8,5.1v31.7h-5.1V22.4Z"/>
  </g>
  <g>
    <path d="M102.1,122.7h71.1v21.6h-44.7v26.6h41.8v21.4h-41.8v46.8h-26.4v-116.4Z"/>
    <path d="M184.5,122.7h26.4v94.3h46.3v22.1h-72.7v-116.4Z"/>
  </g>
  <g>
    <path class="st1" d="M329.8,110.5c-43.9,0-79.7,31.5-79.7,70.3s6.5,32.2,18.3,44.8c2.3,9.6-.5,19.8-7.5,26.9-2.9,2.9-.9,8,3.3,8,13.4,0,26.2-5.2,35.8-14.5,9.5,3.4,19.5,5.1,29.8,5.1,43.9,0,80.3-31.5,80.3-70.3s-36.4-70.3-80.3-70.3Z"/>
    <g id="Icon">
      <path class="st0" d="M318.3,174.4v9c0,2.7,1.1,5.2,3,7.1s4.5,3,7.1,3h9c2.7,0,5.2-1.1,7.1-3,1.9-1.9,3-4.5,3-7.1v-9c0-2.7-1.1-5.2-3-7.1-1.9-1.9-4.5-3-7.1-3h-9c-2.7,0-5.2,1.1-7.1,3s-3,4.5-3,7.1Z"/>
      <path class="st0" d="M284.7,140.8v9c0,2.7,1.1,5.2,3,7.1,1.9,1.9,4.5,3,7.1,3h9c2.7,0,5.2-1.1,7.1-3s3-4.5,3-7.1v-9c0-2.7-1.1-5.2-3-7.1s-4.5-3-7.1-3h-9c-2.7,0-5.2,1.1-7.1,3s-3,4.5-3,7.1Z"/>
      <path class="st0" d="M351.9,208v9c0,2.7,1.1,5.2,3,7.1,1.9,1.9,4.5,3,7.1,3h9c2.7,0,5.2-1.1,7.1-3,1.9-1.9,3-4.5,3-7.1v-9c0-2.7-1.1-5.2-3-7.1s-4.5-3-7.1-3h-9c-2.7,0-5.2,1.1-7.1,3s-3,4.5-3,7.1Z"/>
      <path class="st0" d="M310.4,148.7h58.3c1.5,0,2.9.6,4,1.6,1,1.1,1.6,2.5,1.6,4v15.7c0,1.5-.6,2.9-1.6,4-1.1,1-2.5,1.6-4,1.6h-13.4c-1.9,0-3.4,1.5-3.4,3.4s1.5,3.4,3.4,3.4h13.4c3.3,0,6.4-1.3,8.7-3.6,2.3-2.3,3.6-5.4,3.6-8.7v-15.7c0-3.3-1.3-6.4-3.6-8.7-2.3-2.3-5.4-3.6-8.7-3.6h-58.3c-1.9,0-3.4,1.5-3.4,3.4s1.5,3.4,3.4,3.4Z"/>
      <path class="st0" d="M337.3,209.2h-40.3c-1.5,0-2.9-.6-4-1.6-1-1.1-1.6-2.5-1.6-4v-15.7c0-1.5.6-2.9,1.6-4,1.1-1,2.5-1.6,4-1.6h24.6c1.9,0,3.4-1.5,3.4-3.4s-1.5-3.4-3.4-3.4h-24.6c-3.3,0-6.4,1.3-8.7,3.6-2.3,2.3-3.6,5.4-3.6,8.7v15.7c0,3.3,1.3,6.4,3.6,8.7,2.3,2.3,5.4,3.6,8.7,3.6h40.3c1.9,0,3.4-1.5,3.4-3.4s-1.5-3.4-3.4-3.4Z"/>
      <path class="st0" d="M366.6,185.5l-6.6-6.6,6.6-6.6c1.3-1.3,1.3-3.4,0-4.8-1.3-1.3-3.4-1.3-4.8,0l-9,9c-1.3,1.3-1.3,3.4,0,4.8l9,9c1.3,1.3,3.4,1.3,4.8,0,1.3-1.3,1.3-3.4,0-4.8h0Z"/>
      <path class="st0" d="M335.2,223.9l9-9c1.3-1.3,1.3-3.4,0-4.8l-9-9c-1.3-1.3-3.4-1.3-4.8,0-1.3,1.3-1.3,3.4,0,4.8l6.6,6.6-6.6,6.6c-1.3,1.3-1.3,3.4,0,4.8,1.3,1.3,3.4,1.3,4.8,0h0Z"/>
    </g>
  </g>
  <path d="M432.3,239.1l-27.6-116.4h28.1l8.8,48c2.6,13.8,5,28.8,6.9,40.6h.3c1.9-12.6,4.7-26.6,7.6-40.9l9.8-47.7h28l9.3,49c2.6,13.6,4.5,26.1,6.2,39h.3c1.7-13,4.3-26.6,6.7-40.4l9.5-47.7h26.8l-30,116.4h-28.5l-9.8-50.1c-2.2-11.7-4.1-22.6-5.5-35.9h-.3c-2.1,13.1-4,24.2-6.7,35.9l-11.1,50.1h-28.8Z"/>
</svg>